<svg width="60" height="24" viewBox="0 0 60 24" fill="none" xmlns="http://www.w3.org/2000/svg">
<path d="M17.5172 12.5555C17.5078 10.957 18.232 9.75234 19.6945 8.86406C18.8766 7.69219 17.6391 7.04766 16.0078 6.92344C14.4633 6.80156 12.7734 7.82344 12.1547 7.82344C11.5008 7.82344 10.0055 6.96563 8.82891 6.96563C6.40078 7.00313 3.82031 8.90156 3.82031 12.7641C3.82031 13.9055 4.02891 15.0844 4.44609 16.2984C5.00391 17.8969 7.01484 21.8133 9.1125 21.75C10.2094 21.7242 10.9852 20.9719 12.4125 20.9719C13.7977 20.9719 14.5148 21.75 15.7383 21.75C17.8547 21.7195 19.6734 18.1594 20.2031 16.5563C17.3648 15.218 17.5172 12.6375 17.5172 12.5555ZM15.0539 5.40703C16.2422 3.99609 16.1344 2.71172 16.0992 2.25C15.0492 2.31094 13.8352 2.96484 13.1437 3.76875C12.382 4.63125 11.9344 5.69766 12.0305 6.9C13.1648 6.98672 14.2008 6.40313 15.0539 5.40703Z" fill="white"/>
<g clip-path="url(#clip0_1967_6536)">
<path d="M48.5003 11.4839L38.7468 21.5895L38.7483 21.5952C38.9055 22.1474 39.2396 22.6327 39.6992 22.9767C40.1588 23.3208 40.7185 23.5046 41.2926 23.4999C41.78 23.4999 42.2371 23.3705 42.6295 23.1463L42.6611 23.1276L53.6393 16.9449L48.5003 11.4839Z" fill="#EA4335"/>
<path d="M58.3687 9.76332L58.3586 9.75757L53.6192 7.0752L48.2789 11.7126L53.6379 16.9422L58.3529 14.2871C59.1794 13.8516 59.7401 13.002 59.7401 12.0202C59.7401 11.047 59.1866 10.2003 58.3687 9.76332Z" fill="#FBBC04"/>
<path d="M38.7454 2.41187C38.6879 2.62174 38.6562 2.84312 38.6562 3.07312V20.9269C38.6562 21.1569 38.6864 21.3797 38.7454 21.5881L48.8366 11.7427L38.7454 2.41187Z" fill="#4285F4"/>
<path d="M48.5721 12L53.6206 7.07369L42.6525 0.868001C42.24 0.626688 41.7706 0.499663 41.2926 0.500001C40.0736 0.500001 39.0444 1.30931 38.7468 2.40756V2.41044L48.5721 12Z" fill="#34A853"/>
</g>
<defs>
<clipPath id="clip0_1967_6536">
<rect width="24" height="23" fill="white" transform="translate(36 0.5)"/>
</clipPath>
</defs>
</svg>
