<svg width="40" height="40" viewBox="0 0 40 40" fill="none" xmlns="http://www.w3.org/2000/svg">
<path d="M20 21.6667C22.7614 21.6667 25 19.4281 25 16.6667C25 13.9052 22.7614 11.6667 20 11.6667C17.2386 11.6667 15 13.9052 15 16.6667M19.6873 27.1874H20.3123M19.6873 27.8124H20.3123M15.6667 35H24.3333C28.067 35 29.9339 35 31.3599 34.2734C32.6143 33.6342 33.6342 32.6143 34.2734 31.3599C35 29.9339 35 28.067 35 24.3333V15.6667C35 11.933 35 10.0661 34.2734 8.64006C33.6342 7.38565 32.6143 6.36578 31.3599 5.72662C29.9339 5 28.067 5 24.3333 5H15.6667C11.933 5 10.0661 5 8.64006 5.72662C7.38565 6.36578 6.36578 7.38565 5.72662 8.64006C5 10.0661 5 11.933 5 15.6667V24.3333C5 28.067 5 29.9339 5.72662 31.3599C6.36578 32.6143 7.38565 33.6342 8.64006 34.2734C10.0661 35 11.933 35 15.6667 35ZM20.8333 27.5C20.8333 27.9602 20.4602 28.3333 20 28.3333C19.5398 28.3333 19.1667 27.9602 19.1667 27.5C19.1667 27.0398 19.5398 26.6667 20 26.6667C20.4602 26.6667 20.8333 27.0398 20.8333 27.5Z" stroke="white" stroke-width="2" stroke-linecap="round"/>
</svg>
