<svg width="1680" height="1102" viewBox="0 0 1680 1102" fill="none" xmlns="http://www.w3.org/2000/svg">
<g clip-path="url(#clip0_1401_5100)">
<rect width="1680" height="1102" rx="40" fill="#490A99"/>
<g opacity="0.08">
<mask id="mask0_1401_5100" style="mask-type:luminance" maskUnits="userSpaceOnUse" x="-57" y="-795" width="1795" height="2693">
<path d="M1738 -795H-57V1897.5H1738V-795Z" fill="white"/>
</mask>
<g mask="url(#mask0_1401_5100)">
<path d="M345.939 94.4824L200.365 -177.739C190.372 -196.427 197.413 -219.663 216.101 -229.655C234.789 -239.647 258.024 -232.606 268.016 -213.919L413.591 58.3032C423.583 76.9911 416.542 100.226 397.854 110.219C379.167 120.211 355.931 113.17 345.939 94.4824Z" fill="#0B9E77"/>
<path d="M-41.0434 392.014L93.1229 114.008C102.337 94.9214 125.273 86.9238 144.34 96.1381C163.427 105.352 171.425 128.289 162.21 147.355L28.0442 425.361C18.8299 444.448 -4.10624 452.446 -23.1731 443.231C-42.26 434.017 -50.2577 411.081 -41.0434 392.014Z" fill="#FAD414"/>
<path d="M548.953 517.265L260.198 408.109C240.373 400.61 230.381 378.471 237.88 358.666C245.379 338.842 267.517 328.85 287.322 336.349L576.078 445.505C595.902 453.004 605.895 475.142 598.395 494.947C590.896 514.772 568.758 524.764 548.953 517.265Z" fill="#E3AACA"/>
<path d="M856.097 -51.5706L671.352 195.74C658.667 212.713 634.634 216.203 617.661 203.519C600.689 190.834 597.198 166.801 609.883 149.828L794.628 -97.4827C807.313 -114.455 831.346 -117.946 848.319 -105.261C865.292 -92.5765 868.782 -68.5433 856.097 -51.5706Z" fill="#3E86C1"/>
<path d="M1341.77 183.335L1033.08 179.805C1011.9 179.565 994.911 162.194 995.17 141.013C995.41 119.832 1012.78 102.839 1033.96 103.098L1342.64 106.628C1363.82 106.868 1380.82 124.239 1380.56 145.42C1380.32 166.601 1362.95 183.594 1341.77 183.335Z" fill="#E1602F"/>
<path d="M1084.38 578.733L854.683 372.508C838.927 358.347 837.61 334.094 851.771 318.338C865.931 302.582 890.184 301.266 905.94 315.426L1135.64 521.652C1151.4 535.813 1152.71 560.065 1138.55 575.821C1124.39 591.577 1100.14 592.894 1084.38 578.733Z" fill="#FAD414"/>
<path d="M1191.54 1254.57L1283.17 959.791C1289.45 939.568 1310.95 928.259 1331.19 934.542C1351.42 940.824 1362.73 962.324 1356.44 982.568L1264.82 1277.35C1258.54 1297.57 1237.04 1308.88 1216.79 1302.6C1196.57 1296.31 1185.26 1274.81 1191.54 1254.57Z" fill="#FAD414"/>
<path d="M1125.41 953.589L826.937 1032.37C806.454 1037.77 785.453 1025.55 780.048 1005.07C774.643 984.583 786.869 963.581 807.352 958.176L1105.82 879.396C1126.3 873.991 1147.3 886.217 1152.71 906.7C1158.11 927.183 1145.89 948.184 1125.41 953.589Z" fill="#E3AACA"/>
<path d="M321.487 631.726L368.337 936.836C371.548 957.778 357.188 977.363 336.246 980.574C315.304 983.785 295.719 969.425 292.508 948.483L245.658 643.373C242.447 622.432 256.807 602.846 277.749 599.635C298.69 596.424 318.276 610.784 321.487 631.726Z" fill="#3E86C1"/>
<path d="M-213.084 911.706L56.0458 760.507C74.5144 750.136 97.9092 756.698 108.28 775.166C118.651 793.635 112.09 817.03 93.6212 827.401L-175.509 978.6C-193.978 988.971 -217.373 982.409 -227.744 963.94C-238.115 945.472 -231.553 922.077 -213.084 911.706Z" fill="#0B9E77"/>
<path d="M1552.92 967.211L1330.91 752.709C1315.68 737.99 1315.26 713.697 1329.98 698.46C1344.7 683.222 1368.99 682.803 1384.23 697.522L1606.23 912.025C1621.46 926.744 1621.88 951.036 1607.16 966.274C1592.45 981.511 1568.15 981.93 1552.92 967.211Z" fill="#E1602F"/>
<path d="M758.051 628.096L638.623 912.743C630.426 932.288 607.949 941.483 588.403 933.285C568.858 925.088 559.663 902.611 567.86 883.065L687.288 598.418C695.485 578.873 717.962 569.678 737.508 577.876C757.053 586.073 766.248 608.55 758.051 628.096Z" fill="#E1602F"/>
<path d="M1812.97 125.875L1539.47 -17.2665C1520.71 -27.0991 1513.45 -50.2745 1523.28 -69.0422C1533.11 -87.8099 1556.29 -95.0697 1575.06 -85.2371L1848.55 57.9041C1867.32 67.7367 1874.58 90.9122 1864.75 109.68C1854.92 128.448 1831.74 135.707 1812.97 125.875Z" fill="#0B9E77"/>
<path d="M1345.99 472.051L1480.16 194.045C1489.37 174.958 1512.31 166.96 1531.38 176.175C1550.46 185.389 1558.46 208.325 1549.25 227.392L1415.08 505.398C1405.87 524.484 1382.93 532.482 1363.86 523.268C1344.78 514.054 1336.78 491.117 1345.99 472.051Z" fill="#E3AACA"/>
<path d="M1926.46 531.146L1619.01 503.383C1597.91 501.469 1582.36 482.82 1584.25 461.719C1586.16 440.618 1604.81 425.061 1625.91 426.956L1933.36 454.719C1954.46 456.633 1970.02 475.281 1968.12 496.383C1966.21 517.484 1947.56 533.041 1926.46 531.146Z" fill="#0B9E77"/>
<path d="M1587.38 1216.02L1841.29 1040.47C1858.73 1028.42 1882.62 1032.77 1894.67 1050.2C1906.71 1067.63 1902.36 1091.52 1884.93 1103.57L1631.02 1279.12C1613.59 1291.17 1589.69 1286.82 1577.65 1269.39C1565.6 1251.96 1569.95 1228.06 1587.38 1216.02Z" fill="#E3AACA"/>
</g>
</g>
</g>
<defs>
<clipPath id="clip0_1401_5100">
<rect width="1680" height="1102" rx="40" fill="white"/>
</clipPath>
</defs>
</svg>
