<svg width="24" height="23" viewBox="0 0 24 23" fill="none" xmlns="http://www.w3.org/2000/svg">
<g clip-path="url(#clip0_1401_4940)">
<path d="M12.5003 10.9839L2.74683 21.0895L2.74826 21.0952C2.90553 21.6474 3.23959 22.1327 3.69918 22.4767C4.15878 22.8208 4.71855 23.0046 5.29264 22.9999C5.77995 22.9999 6.23708 22.8705 6.62951 22.6463L6.66114 22.6276L17.6393 16.4449L12.5003 10.9839Z" fill="#EA4335"/>
<path d="M22.3687 9.26332L22.3586 9.25757L17.6192 6.5752L12.2789 11.2126L17.6379 16.4422L22.3529 13.7871C23.1794 13.3516 23.7401 12.502 23.7401 11.5202C23.7401 10.547 23.1866 9.70032 22.3687 9.26332Z" fill="#FBBC04"/>
<path d="M2.74537 1.91187C2.68787 2.12174 2.65625 2.34312 2.65625 2.57312V20.4269C2.65625 20.6569 2.68644 20.8797 2.74537 21.0881L12.8366 11.2427L2.74537 1.91187Z" fill="#4285F4"/>
<path d="M12.5721 11.5L17.6206 6.57369L6.65251 0.368001C6.23997 0.126688 5.77058 -0.000336894 5.29264 6.71052e-07C4.07364 6.71052e-07 3.04439 0.809313 2.74683 1.90756V1.91044L12.5721 11.5Z" fill="#34A853"/>
</g>
<defs>
<clipPath id="clip0_1401_4940">
<rect width="24" height="23" fill="white"/>
</clipPath>
</defs>
</svg>
