<svg width="126" height="48" viewBox="0 0 126 48" fill="none" xmlns="http://www.w3.org/2000/svg">
<rect width="126" height="48" rx="24" fill="white"/>
<path d="M43.3329 18.6801L34.5996 11.6934C32.8929 10.3334 30.2263 10.3201 28.5329 11.6801L19.7996 18.6801C18.5463 19.6801 17.7863 21.6801 18.0529 23.2534L19.7329 33.3068C20.1196 35.5601 22.2129 37.3334 24.4929 37.3334H38.6263C40.8796 37.3334 43.0129 35.5201 43.3996 33.2934L45.0796 23.2401C45.3196 21.6801 44.5596 19.6801 43.3329 18.6801Z" fill="#1741CC"/>
<path d="M26 21.9905V24.2003C26 24.9199 26.7372 25.4039 27.3975 25.1179L36.515 21.168C36.8807 21.0095 37.1174 20.649 37.1174 20.2504V18.0256C37.1174 17.3054 36.3791 16.8213 35.7186 17.1085L26.6012 21.0734C26.2361 21.2322 26 21.5924 26 21.9905Z" fill="white"/>
<path d="M35.7322 23.4747L26.6148 27.2806C26.2425 27.436 26 27.8 26 28.2034V31.6661C26 32.041 26.2097 32.3844 26.5432 32.5557L28.8731 33.7522C29.5386 34.0939 30.3299 33.6107 30.3299 32.8626V31.3587C30.3299 30.5654 30.7988 29.8471 31.525 29.5279L36.5199 27.3318C36.883 27.1722 37.1174 26.813 37.1174 26.4164V24.3975C37.1174 23.6836 36.391 23.1997 35.7322 23.4747Z" fill="white"/>
<path d="M56.512 31H53.216V24.856H52V22.552H53.216V22.232C53.216 20.424 54.368 19.352 56.272 19.352C57.28 19.352 58.16 19.56 58.16 19.56V21.624H57.392C56.496 21.624 56.512 22.12 56.512 22.552H58.16V24.856H56.512V31ZM62.138 21.896H58.842V19.704H62.138V21.896ZM62.138 31H58.842V22.552H62.138V31ZM72.6603 31H69.3643V26.04C69.3643 25.624 69.2523 25.08 68.1803 25.08C67.1243 25.08 66.9483 25.8 66.9483 26.184V31H63.6523V22.552H66.6923V23.896C67.3323 23.048 68.3883 22.36 69.5883 22.36C71.5563 22.36 72.6603 23.512 72.6603 25.576V31ZM82.6021 31H79.6421V30.072C78.9541 31 77.9461 31.208 77.1621 31.208C74.7781 31.208 73.5781 29.352 73.5781 26.584C73.5781 23.528 75.2261 22.312 77.0341 22.312C78.2821 22.312 78.9861 22.824 79.3061 23.128V19.704H82.6021V31ZM78.0421 28.824C79.0981 28.824 79.3861 27.704 79.3861 26.744C79.3861 25.672 79.0181 24.664 78.0261 24.664C77.1141 24.664 76.8261 25.64 76.8261 26.76C76.8261 27.976 77.1941 28.824 78.0421 28.824ZM89.1431 27.688V26.92C89.1431 26.92 88.8231 27.176 88.0711 27.336C87.1431 27.528 86.7431 27.832 86.7431 28.36C86.7431 28.856 87.0631 29.08 87.7031 29.08C88.4071 29.08 89.1431 28.632 89.1431 27.688ZM92.6471 31H89.4471C89.4471 31 89.2071 30.6 89.2071 30.04C89.2071 30.04 88.5351 31.24 86.7591 31.24C84.9831 31.24 83.7191 30.424 83.7191 28.632C83.7191 26.84 85.1431 26.088 86.9031 25.816C88.2311 25.608 89.0471 25.528 89.0471 24.936C89.0471 24.6 88.7591 24.392 88.0711 24.392C87.0471 24.392 86.5511 24.744 86.3911 25.032L83.8791 24.296C84.2951 23.16 85.8311 22.2 88.3751 22.2C90.3111 22.2 92.1671 22.952 92.1671 25.224V27.656C92.1671 30.2 92.4231 30.52 92.6471 30.84V31ZM108.317 31H105.021V26.04C105.021 25.512 104.781 25.08 103.949 25.08C103.069 25.08 102.653 25.4 102.653 26.2V31H99.3575V26.04C99.3575 25.512 99.1175 25.08 98.2855 25.08C97.4375 25.08 96.9895 25.4 96.9895 26.184V31H93.6935V22.552H96.6055V23.912C97.3415 22.968 98.2215 22.36 99.4695 22.36C100.589 22.36 101.709 22.76 102.349 23.912C102.749 23.208 103.821 22.36 105.229 22.36C107.213 22.36 108.317 23.512 108.317 25.608V31Z" fill="#1741CC"/>
</svg>
