<svg width="143" height="48" viewBox="0 0 143 48" fill="none" xmlns="http://www.w3.org/2000/svg">
<rect width="143" height="48" rx="24" fill="white"/>
<path d="M43.3329 18.6801L34.5996 11.6934C32.8929 10.3334 30.2263 10.3201 28.5329 11.6801L19.7996 18.6801C18.5463 19.6801 17.7863 21.6801 18.0529 23.2534L19.7329 33.3068C20.1196 35.5601 22.2129 37.3334 24.4929 37.3334H38.6263C40.8796 37.3334 43.0129 35.5201 43.3996 33.2934L45.0796 23.2401C45.3196 21.6801 44.5596 19.6801 43.3329 18.6801Z" fill="#1741CC"/>
<path d="M32.8256 22.7305C32.3414 22.7805 32.3317 23.1826 32.3873 23.3774C32.6447 23.8087 33.2554 24.7839 33.6394 25.2346C34.5105 26.2572 36.2688 28.7614 33.3055 29.8882C31.0098 30.7613 27.1077 28.5109 25.4174 27.7388H25C25.0334 28.2063 25.2087 28.9909 25.2922 29.3248C26.0935 31.9625 29.1458 32.8446 30.5718 32.9559C32.123 33.2758 35.5785 33.2706 37.6461 31.2029C39.9625 28.8866 38.773 25.8355 37.98 24.8799C37.3289 24.0952 35.8723 23.4817 35.2254 23.273C34.6272 23.0713 33.3097 22.6804 32.8256 22.7305Z" fill="white"/>
<path d="M25.7422 23.2923C26.4099 25.6963 29.3454 26.5269 30.7505 26.7564C27.6787 22.4659 30.4375 19.9743 32.0443 19.9743C34.5812 19.9743 36.844 21.2472 38.2631 21.8524C38.43 20.617 37.6509 19.376 37.2405 18.91C36.2722 17.8082 34.2077 17.2823 33.2964 17.1571C29.9784 16.7012 28.5802 17.2823 27.2447 18.3257C25.9189 19.3615 25.0744 20.8883 25.7422 23.2923Z" fill="white"/>
<path d="M60.208 24.296L57.696 25.032C57.504 24.744 57.088 24.44 56.224 24.44C56.016 24.44 55.52 24.552 55.52 24.904C55.52 25.4 56.176 25.416 57.184 25.576C58.944 25.864 60.368 26.68 60.368 28.472C60.368 30.104 58.944 31.32 56.368 31.32C53.984 31.32 52.528 30.36 52.112 29.064L54.624 28.328C54.736 28.616 55.232 29.08 56.256 29.08C56.736 29.08 57.264 28.952 57.264 28.472C57.264 27.864 55.952 27.688 55.024 27.496C53.28 27.144 52.416 26.504 52.416 24.904C52.416 23.112 54.176 22.2 55.952 22.2C58.336 22.2 59.792 23.16 60.208 24.296ZM66.555 27.688V26.92C66.555 26.92 66.235 27.176 65.483 27.336C64.555 27.528 64.155 27.832 64.155 28.36C64.155 28.856 64.475 29.08 65.115 29.08C65.819 29.08 66.555 28.632 66.555 27.688ZM70.059 31H66.859C66.859 31 66.619 30.6 66.619 30.04C66.619 30.04 65.947 31.24 64.171 31.24C62.395 31.24 61.131 30.424 61.131 28.632C61.131 26.84 62.555 26.088 64.315 25.816C65.643 25.608 66.459 25.528 66.459 24.936C66.459 24.6 66.171 24.392 65.483 24.392C64.459 24.392 63.963 24.744 63.803 25.032L61.291 24.296C61.707 23.16 63.243 22.2 65.787 22.2C67.723 22.2 69.579 22.952 69.579 25.224V27.656C69.579 30.2 69.835 30.52 70.059 30.84V31ZM74.0654 31H71.1054V19.704H74.3854V23.112C74.7054 22.808 75.4254 22.296 76.6734 22.296C78.4814 22.296 80.1294 23.512 80.1294 26.568C80.1294 29.336 78.9294 31.208 76.5454 31.208C75.7614 31.208 74.8334 31 74.0654 30.072V31ZM75.6654 28.824C76.5134 28.824 76.8814 27.96 76.8814 26.744C76.8814 25.624 76.5934 24.648 75.6814 24.648C74.6894 24.648 74.3214 25.656 74.3214 26.728C74.3214 27.688 74.6094 28.824 75.6654 28.824ZM84.4624 21.896H81.1664V19.704H84.4624V21.896ZM84.4624 31H81.1664V22.552H84.4624V31ZM96.8585 31H92.9705L92.2665 26.664C92.0745 25.432 92.0745 24.744 92.0745 24.744H91.9465C91.9465 24.744 91.9625 25.384 91.7545 26.68L91.0505 31H87.1625L85.1945 22.552H88.3785L88.9545 26.504C89.1465 27.816 89.1465 28.584 89.1465 28.584H89.2745C89.2745 28.584 89.2905 27.816 89.5305 26.504L90.2665 22.552H93.7865L94.4905 26.504C94.7305 27.816 94.7145 28.584 94.7145 28.584H94.8425C94.8425 28.584 94.8585 27.816 95.0665 26.504L95.6745 22.552H98.8265L96.8585 31ZM108.608 26.76C108.608 29.304 107.152 31.208 103.808 31.208C100.464 31.208 99.1681 29.304 99.1681 26.76C99.1681 24.216 100.624 22.312 103.968 22.312C107.312 22.312 108.608 24.216 108.608 26.76ZM103.904 28.824C105.088 28.824 105.36 27.704 105.36 26.744C105.36 25.784 105.248 24.664 104.064 24.664C102.88 24.664 102.608 25.784 102.608 26.744C102.608 27.704 102.72 28.824 103.904 28.824ZM112.925 31H109.629V22.552H112.669V23.896C113.405 22.776 114.461 22.312 115.565 22.312V25.192C113.933 24.936 112.925 25.08 112.925 26.456V31ZM125.961 22.552L122.761 25.656L124.233 27.176C125.577 28.552 125.641 30.024 125.641 31H122.361C122.361 30.488 122.297 29.8 121.737 29.208L120.473 27.848L119.673 28.6V31H116.377V19.704H119.657V25L121.929 22.552H125.961Z" fill="#1741CC"/>
</svg>
