<svg width="143" height="48" viewBox="0 0 143 48" fill="none" xmlns="http://www.w3.org/2000/svg">
<rect width="143" height="48" rx="24" fill="white"/>
<path fill-rule="evenodd" clip-rule="evenodd" d="M35.5839 9.21126L45.8872 17.4539C47.3344 18.6337 48.231 20.9932 47.9479 22.8336L45.9659 34.6942C45.5097 37.3212 42.9929 39.4605 40.3345 39.4605H23.6604C20.9706 39.4605 18.5009 37.3684 18.0447 34.7099L16.0627 22.8494C15.7481 20.9932 16.6448 18.6337 18.1234 17.4539L28.4267 9.19553C30.4244 7.59104 33.5705 7.60677 35.5839 9.21126ZM34.088 20.736H39.752C39.752 19.296 38 15.432 31.232 15.432C27.536 15.432 23.744 16.992 23.744 20.928C23.744 24.72 27.632 25.752 30.296 26.28C30.7735 26.3737 31.2245 26.4517 31.6422 26.5239C33.4712 26.84 34.664 27.0462 34.664 27.984C34.664 29.088 33.392 29.496 32 29.496C29.744 29.496 29.048 28.512 29.048 28.032H23.264C23.264 29.472 24.656 33.672 32.048 33.672C36.008 33.672 39.92 31.968 39.92 27.744C39.92 23.64 36.488 22.8 33.056 22.224C32.9214 22.2018 32.7874 22.1801 32.6545 22.1585C30.774 21.8532 29.12 21.5846 29.12 20.688C29.12 19.896 30.128 19.584 31.28 19.584C32.96 19.584 34.088 20.256 34.088 20.736Z" fill="#1741CC"/>
<path d="M60.2084 24.296L57.6964 25.032C57.5044 24.744 57.0884 24.44 56.2244 24.44C56.0164 24.44 55.5204 24.552 55.5204 24.904C55.5204 25.4 56.1764 25.416 57.1844 25.576C58.9444 25.864 60.3684 26.68 60.3684 28.472C60.3684 30.104 58.9444 31.32 56.3684 31.32C53.9844 31.32 52.5284 30.36 52.1124 29.064L54.6244 28.328C54.7364 28.616 55.2324 29.08 56.2564 29.08C56.7364 29.08 57.2644 28.952 57.2644 28.472C57.2644 27.864 55.9524 27.688 55.0244 27.496C53.2804 27.144 52.4164 26.504 52.4164 24.904C52.4164 23.112 54.1764 22.2 55.9524 22.2C58.3364 22.2 59.7924 23.16 60.2084 24.296ZM66.5554 27.688V26.92C66.5554 26.92 66.2354 27.176 65.4834 27.336C64.5554 27.528 64.1554 27.832 64.1554 28.36C64.1554 28.856 64.4754 29.08 65.1154 29.08C65.8194 29.08 66.5554 28.632 66.5554 27.688ZM70.0594 31H66.8594C66.8594 31 66.6194 30.6 66.6194 30.04C66.6194 30.04 65.9474 31.24 64.1714 31.24C62.3954 31.24 61.1314 30.424 61.1314 28.632C61.1314 26.84 62.5554 26.088 64.3154 25.816C65.6434 25.608 66.4594 25.528 66.4594 24.936C66.4594 24.6 66.1714 24.392 65.4834 24.392C64.4594 24.392 63.9634 24.744 63.8034 25.032L61.2914 24.296C61.7074 23.16 63.2434 22.2 65.7874 22.2C67.7234 22.2 69.5794 22.952 69.5794 25.224V27.656C69.5794 30.2 69.8354 30.52 70.0594 30.84V31ZM74.0657 31H71.1057V19.704H74.3857V23.112C74.7057 22.808 75.4257 22.296 76.6737 22.296C78.4817 22.296 80.1297 23.512 80.1297 26.568C80.1297 29.336 78.9297 31.208 76.5457 31.208C75.7617 31.208 74.8337 31 74.0657 30.072V31ZM75.6657 28.824C76.5137 28.824 76.8817 27.96 76.8817 26.744C76.8817 25.624 76.5937 24.648 75.6817 24.648C74.6897 24.648 74.3217 25.656 74.3217 26.728C74.3217 27.688 74.6097 28.824 75.6657 28.824ZM84.4627 21.896H81.1667V19.704H84.4627V21.896ZM84.4627 31H81.1667V22.552H84.4627V31ZM96.8589 31H92.9709L92.2669 26.664C92.0749 25.432 92.0749 24.744 92.0749 24.744H91.9469C91.9469 24.744 91.9629 25.384 91.7549 26.68L91.0509 31H87.1629L85.1949 22.552H88.3789L88.9549 26.504C89.1469 27.816 89.1469 28.584 89.1469 28.584H89.2749C89.2749 28.584 89.2909 27.816 89.5309 26.504L90.2669 22.552H93.7869L94.4909 26.504C94.7309 27.816 94.7149 28.584 94.7149 28.584H94.8429C94.8429 28.584 94.8589 27.816 95.0669 26.504L95.6749 22.552H98.8269L96.8589 31ZM108.608 26.76C108.608 29.304 107.152 31.208 103.808 31.208C100.464 31.208 99.1685 29.304 99.1685 26.76C99.1685 24.216 100.624 22.312 103.968 22.312C107.312 22.312 108.608 24.216 108.608 26.76ZM103.904 28.824C105.088 28.824 105.36 27.704 105.36 26.744C105.36 25.784 105.248 24.664 104.064 24.664C102.88 24.664 102.608 25.784 102.608 26.744C102.608 27.704 102.72 28.824 103.904 28.824ZM112.925 31H109.629V22.552H112.669V23.896C113.405 22.776 114.461 22.312 115.565 22.312V25.192C113.933 24.936 112.925 25.08 112.925 26.456V31ZM125.962 22.552L122.762 25.656L124.234 27.176C125.578 28.552 125.642 30.024 125.642 31H122.362C122.362 30.488 122.298 29.8 121.738 29.208L120.474 27.848L119.674 28.6V31H116.378V19.704H119.658V25L121.93 22.552H125.962Z" fill="#1741CC"/>
</svg>
