<svg width="145" height="48" viewBox="0 0 145 48" fill="none" xmlns="http://www.w3.org/2000/svg">
<path fill-rule="evenodd" clip-rule="evenodd" d="M27.8994 5.54004L40.9994 16.02C42.8394 17.52 43.9794 20.52 43.6194 22.86L41.0994 37.94C40.5194 41.28 37.3194 44 33.9394 44H12.7394C9.3194 44 6.1794 41.34 5.5994 37.96L3.0794 22.88C2.6794 20.52 3.8194 17.52 5.6994 16.02L18.7994 5.52004C21.3394 3.48004 25.3394 3.50004 27.8994 5.54004ZM25.9356 21.692H32.5436C32.5436 20.012 30.4996 15.504 22.6036 15.504C18.2916 15.504 13.8676 17.324 13.8676 21.916C13.8676 26.34 18.4036 27.544 21.5116 28.16C22.0687 28.2693 22.5948 28.3603 23.0822 28.4445C25.216 28.8134 26.6076 29.0539 26.6076 30.148C26.6076 31.436 25.1236 31.912 23.4996 31.912C20.8676 31.912 20.0556 30.764 20.0556 30.204H13.3076C13.3076 31.884 14.9316 36.784 23.5556 36.784C28.1756 36.784 32.7396 34.796 32.7396 29.868C32.7396 25.08 28.7356 24.1 24.7316 23.428C24.5746 23.4021 24.4182 23.3767 24.2632 23.3516C22.0693 22.9954 20.1396 22.6821 20.1396 21.636C20.1396 20.712 21.3156 20.348 22.6596 20.348C24.6196 20.348 25.9356 21.132 25.9356 21.692Z" fill="#1741CC"/>
<path d="M62.26 23.12L59.12 24.04C58.88 23.68 58.36 23.3 57.28 23.3C57.02 23.3 56.4 23.44 56.4 23.88C56.4 24.5 57.22 24.52 58.48 24.72C60.68 25.08 62.46 26.1 62.46 28.34C62.46 30.38 60.68 31.9 57.46 31.9C54.48 31.9 52.66 30.7 52.14 29.08L55.28 28.16C55.42 28.52 56.04 29.1 57.32 29.1C57.92 29.1 58.58 28.94 58.58 28.34C58.58 27.58 56.94 27.36 55.78 27.12C53.6 26.68 52.52 25.88 52.52 23.88C52.52 21.64 54.72 20.5 56.94 20.5C59.92 20.5 61.74 21.7 62.26 23.12ZM70.1937 27.36V26.4C70.1937 26.4 69.7937 26.72 68.8537 26.92C67.6937 27.16 67.1937 27.54 67.1937 28.2C67.1937 28.82 67.5937 29.1 68.3937 29.1C69.2737 29.1 70.1937 28.54 70.1937 27.36ZM74.5738 31.5H70.5737C70.5737 31.5 70.2738 31 70.2738 30.3C70.2738 30.3 69.4338 31.8 67.2137 31.8C64.9937 31.8 63.4137 30.78 63.4137 28.54C63.4137 26.3 65.1937 25.36 67.3937 25.02C69.0537 24.76 70.0737 24.66 70.0737 23.92C70.0737 23.5 69.7138 23.24 68.8537 23.24C67.5737 23.24 66.9537 23.68 66.7537 24.04L63.6137 23.12C64.1337 21.7 66.0537 20.5 69.2337 20.5C71.6538 20.5 73.9738 21.44 73.9738 24.28V27.32C73.9738 30.5 74.2937 30.9 74.5738 31.3V31.5ZM79.5817 31.5H75.8817V17.38H79.9817V21.64C80.3817 21.26 81.2817 20.62 82.8417 20.62C85.1017 20.62 87.1617 22.14 87.1617 25.96C87.1617 29.42 85.6617 31.76 82.6817 31.76C81.7017 31.76 80.5417 31.5 79.5817 30.34V31.5ZM81.5817 28.78C82.6417 28.78 83.1017 27.7 83.1017 26.18C83.1017 24.78 82.7417 23.56 81.6017 23.56C80.3617 23.56 79.9017 24.82 79.9017 26.16C79.9017 27.36 80.2617 28.78 81.5817 28.78ZM92.578 20.12H88.458V17.38H92.578V20.12ZM92.578 31.5H88.458V20.94H92.578V31.5ZM108.073 31.5H103.213L102.333 26.08C102.093 24.54 102.093 23.68 102.093 23.68H101.933C101.933 23.68 101.953 24.48 101.693 26.1L100.813 31.5H95.9531L93.4931 20.94H97.4731L98.1931 25.88C98.4331 27.52 98.4331 28.48 98.4331 28.48H98.5931C98.5931 28.48 98.6131 27.52 98.9131 25.88L99.8331 20.94H104.233L105.113 25.88C105.413 27.52 105.393 28.48 105.393 28.48H105.553C105.553 28.48 105.573 27.52 105.833 25.88L106.593 20.94H110.533L108.073 31.5ZM122.76 26.2C122.76 29.38 120.94 31.76 116.76 31.76C112.58 31.76 110.96 29.38 110.96 26.2C110.96 23.02 112.78 20.64 116.96 20.64C121.14 20.64 122.76 23.02 122.76 26.2ZM116.88 28.78C118.36 28.78 118.7 27.38 118.7 26.18C118.7 24.98 118.56 23.58 117.08 23.58C115.6 23.58 115.26 24.98 115.26 26.18C115.26 27.38 115.4 28.78 116.88 28.78ZM128.156 31.5H124.036V20.94H127.836V22.62C128.756 21.22 130.076 20.64 131.456 20.64V24.24C129.416 23.92 128.156 24.1 128.156 25.82V31.5ZM144.452 20.94L140.452 24.82L142.292 26.72C143.972 28.44 144.052 30.28 144.052 31.5H139.952C139.952 30.86 139.872 30 139.172 29.26L137.592 27.56L136.592 28.5V31.5H132.472V17.38H136.572V24L139.412 20.94H144.452Z" fill="#1741CC"/>
</svg>
