<svg width="32" height="32" viewBox="0 0 32 32" fill="none" xmlns="http://www.w3.org/2000/svg">
<path d="M11.9737 13.0068C12.8216 14.7728 13.9775 16.428 15.4413 17.8919C16.9052 19.3558 18.5604 20.5117 20.3264 21.3596C20.4783 21.4325 20.5543 21.469 20.6504 21.497C20.992 21.5966 21.4114 21.525 21.7006 21.3179C21.782 21.2596 21.8516 21.19 21.9909 21.0507C22.4168 20.6248 22.6298 20.4119 22.8439 20.2726C23.6515 19.7476 24.6926 19.7476 25.5002 20.2726C25.7144 20.4119 25.9273 20.6248 26.3533 21.0507L26.5907 21.2881C27.2381 21.9356 27.5618 22.2593 27.7377 22.607C28.0874 23.2984 28.0874 24.115 27.7377 24.8065C27.5618 25.1541 27.2381 25.4778 26.5907 26.1253L26.3986 26.3173C25.7534 26.9626 25.4308 27.2852 24.9922 27.5316C24.5054 27.805 23.7495 28.0016 23.1913 27.9999C22.6882 27.9984 22.3444 27.9008 21.6567 27.7056C17.9612 26.6567 14.474 24.6777 11.5648 21.7684C8.65555 18.8592 6.67649 15.3721 5.62759 11.6765C5.43241 10.9889 5.33482 10.645 5.33332 10.142C5.33166 9.58372 5.52825 8.82779 5.80165 8.34108C6.04805 7.90246 6.37066 7.57984 7.01589 6.93462L7.20794 6.74257C7.85538 6.09513 8.1791 5.7714 8.52678 5.59555C9.21823 5.24582 10.0348 5.24582 10.7262 5.59555C11.0739 5.7714 11.3976 6.09513 12.0451 6.74257L12.2825 6.97998C12.7084 7.4059 12.9214 7.61885 13.0606 7.833C13.5857 8.64059 13.5857 9.68171 13.0606 10.4893C12.9214 10.7034 12.7084 10.9164 12.2825 11.3423C12.1432 11.4816 12.0736 11.5512 12.0153 11.6326C11.8082 11.9219 11.7367 12.3413 11.8362 12.6828C11.8643 12.7789 11.9007 12.8549 11.9737 13.0068Z" fill="#EDF0FD" stroke="#1741CC" stroke-width="2" stroke-linecap="round" stroke-linejoin="round"/>
</svg>
