<svg width="224" height="32" viewBox="0 0 224 32" fill="none" xmlns="http://www.w3.org/2000/svg">
<path d="M22.9516 17.7707L23.7808 12.3105H18.5936V8.76874C18.5936 7.27456 19.3169 5.81728 21.6402 5.81728H24V1.16874C24 1.16874 21.8594 0.799805 19.8137 0.799805C15.5397 0.799805 12.7489 3.41553 12.7489 8.14893V12.3105H8V17.7707H12.7489V30.9711C13.7023 31.1223 14.6776 31.1998 15.6712 31.1998C16.6648 31.1998 17.6402 31.1223 18.5936 30.9711V17.7707H22.9516Z" fill="#333333"/>
<path d="M92.076 9.57453C92.0884 9.85613 92.0884 10.1249 92.0884 10.4065C92.1007 18.9442 85.8281 28.8002 74.3571 28.8002C70.9738 28.8002 67.6523 27.789 64.8 25.8946C65.2939 25.9586 65.7878 25.9842 66.2817 25.9842C69.0846 25.9842 71.8135 25.0114 74.0237 23.2066C71.3566 23.1554 69.0105 21.3506 68.1956 18.7138C69.134 18.9058 70.0971 18.8674 71.0109 18.5986C68.1092 18.0098 66.0224 15.3602 66.0101 12.2753C66.0101 12.2497 66.0101 12.2241 66.0101 12.1985C66.8744 12.6977 67.8499 12.9793 68.8377 13.0049C66.1088 11.1105 65.2569 7.33453 66.9114 4.37772C70.0848 8.42253 74.7522 10.8673 79.7654 11.1361C79.2591 8.89613 79.9506 6.54092 81.5681 4.95372C84.0747 2.50891 88.026 2.63691 90.3967 5.23532C91.792 4.95372 93.1379 4.41612 94.3603 3.66091C93.8911 5.15852 92.9157 6.42572 91.6192 7.23213C92.8539 7.07853 94.064 6.73292 95.2 6.22092C94.3603 7.52653 93.2984 8.65293 92.076 9.57453Z" fill="#333333"/>
<g clip-path="url(#clip0_1401_5227)">
<path d="M144 2.88368C148.275 2.88368 148.777 2.90274 150.466 2.97896C152.029 3.04883 152.873 3.30925 153.439 3.53156C154.188 3.82374 154.722 4.16673 155.281 4.72568C155.84 5.28464 156.189 5.81818 156.475 6.56769C156.691 7.13299 156.958 7.97777 157.027 9.54029C157.104 11.2299 157.123 11.7316 157.123 16.0064C157.123 20.2811 157.104 20.7828 157.027 22.4724C156.958 24.0349 156.697 24.8797 156.475 25.445C156.183 26.1945 155.84 26.7281 155.281 27.287C154.722 27.846 154.188 28.1953 153.439 28.4811C152.873 28.6971 152.029 28.9639 150.466 29.0337C148.777 29.11 148.275 29.129 144 29.129C139.725 29.129 139.224 29.11 137.534 29.0337C135.971 28.9639 135.127 28.7035 134.561 28.4811C133.812 28.189 133.278 27.846 132.719 27.287C132.16 26.7281 131.811 26.1945 131.525 25.445C131.309 24.8797 131.042 24.0349 130.973 22.4724C130.896 20.7828 130.877 20.2811 130.877 16.0064C130.877 11.7316 130.896 11.2299 130.973 9.54029C131.042 7.97777 131.303 7.13299 131.525 6.56769C131.817 5.81818 132.16 5.28464 132.719 4.72568C133.278 4.16673 133.812 3.81739 134.561 3.53156C135.127 3.3156 135.971 3.04883 137.534 2.97896C139.224 2.89639 139.732 2.88368 144 2.88368ZM144 0C139.655 0 139.109 0.0190552 137.401 0.0952759C135.698 0.171497 134.536 0.444621 133.52 0.838428C132.465 1.24494 131.576 1.79754 130.687 2.68678C129.798 3.57602 129.251 4.47162 128.838 5.51965C128.445 6.53593 128.171 7.69829 128.095 9.40691C128.019 11.1092 128 11.6554 128 16C128 20.3446 128.019 20.8908 128.095 22.5994C128.171 24.3017 128.445 25.4641 128.838 26.4867C129.245 27.5411 129.798 28.4303 130.687 29.3196C131.576 30.2088 132.472 30.7551 133.52 31.1679C134.536 31.5617 135.698 31.8349 137.407 31.9111C139.116 31.9873 139.655 32.0064 144.006 32.0064C148.357 32.0064 148.897 31.9873 150.606 31.9111C152.308 31.8349 153.47 31.5617 154.493 31.1679C155.547 30.7614 156.437 30.2088 157.326 29.3196C158.215 28.4303 158.761 27.5347 159.174 26.4867C159.568 25.4704 159.841 24.3081 159.917 22.5994C159.994 20.8908 160.013 20.3509 160.013 16C160.013 11.6491 159.994 11.1092 159.917 9.40056C159.841 7.69829 159.568 6.53593 159.174 5.5133C158.768 4.45891 158.215 3.56967 157.326 2.68043C156.437 1.79119 155.541 1.24494 154.493 0.832076C153.477 0.438269 152.314 0.165145 150.606 0.0889242C148.891 0.0190552 148.345 0 144 0Z" fill="#333333"/>
<path d="M144 2.88368C148.275 2.88368 148.777 2.90274 150.466 2.97896C152.029 3.04883 152.873 3.30925 153.439 3.53156C154.188 3.82374 154.722 4.16673 155.281 4.72568C155.84 5.28464 156.189 5.81818 156.475 6.56769C156.691 7.13299 156.958 7.97777 157.027 9.54029C157.104 11.2299 157.123 11.7316 157.123 16.0064C157.123 20.2811 157.104 20.7828 157.027 22.4724C156.958 24.0349 156.697 24.8797 156.475 25.445C156.183 26.1945 155.84 26.7281 155.281 27.287C154.722 27.846 154.188 28.1953 153.439 28.4811C152.873 28.6971 152.029 28.9639 150.466 29.0337C148.777 29.11 148.275 29.129 144 29.129C139.725 29.129 139.224 29.11 137.534 29.0337C135.971 28.9639 135.127 28.7035 134.561 28.4811C133.812 28.189 133.278 27.846 132.719 27.287C132.16 26.7281 131.811 26.1945 131.525 25.445C131.309 24.8797 131.042 24.0349 130.973 22.4724C130.896 20.7828 130.877 20.2811 130.877 16.0064C130.877 11.7316 130.896 11.2299 130.973 9.54029C131.042 7.97777 131.303 7.13299 131.525 6.56769C131.817 5.81818 132.16 5.28464 132.719 4.72568C133.278 4.16673 133.812 3.81739 134.561 3.53156C135.127 3.3156 135.971 3.04883 137.534 2.97896C139.224 2.89639 139.732 2.88368 144 2.88368Z" fill="#333333"/>
<path d="M144 7.78711C139.465 7.78711 135.781 11.4648 135.781 16.0062C135.781 20.5477 139.459 24.2254 144 24.2254C148.542 24.2254 152.219 20.5477 152.219 16.0062C152.219 11.4648 148.542 7.78711 144 7.78711ZM144 21.3353C141.053 21.3353 138.665 18.9471 138.665 15.9999C138.665 13.0527 141.053 10.6644 144 10.6644C146.947 10.6644 149.335 13.0527 149.335 15.9999C149.335 18.9471 146.947 21.3353 144 21.3353Z" fill="#EDEDED"/>
<path d="M152.543 9.37502C153.603 9.37502 154.461 8.5162 154.461 7.4568C154.461 6.39739 153.603 5.53857 152.543 5.53857C151.484 5.53857 150.625 6.39739 150.625 7.4568C150.625 8.5162 151.484 9.37502 152.543 9.37502Z" fill="#333333"/>
</g>
<g clip-path="url(#clip1_1401_5227)">
<path d="M221.638 0H194.362C193.736 0 193.135 0.248877 192.692 0.691879C192.249 1.13488 192 1.73572 192 2.36222V29.6378C192 30.2643 192.249 30.8651 192.692 31.3081C193.135 31.7511 193.736 32 194.362 32H221.638C222.264 32 222.865 31.7511 223.308 31.3081C223.751 30.8651 224 30.2643 224 29.6378V2.36222C224 1.73572 223.751 1.13488 223.308 0.691879C222.865 0.248877 222.264 0 221.638 0ZM201.538 27.26H196.727V11.9778H201.538V27.26ZM199.129 9.86C198.583 9.85693 198.051 9.69226 197.598 9.38678C197.146 9.08131 196.794 8.64871 196.588 8.14359C196.381 7.63846 196.329 7.08346 196.437 6.54861C196.546 6.01376 196.81 5.52304 197.198 5.13838C197.585 4.75372 198.077 4.49236 198.613 4.38728C199.148 4.28221 199.703 4.33812 200.207 4.54798C200.71 4.75784 201.141 5.11222 201.443 5.56642C201.746 6.02061 201.907 6.55426 201.907 7.1C201.912 7.46538 201.843 7.82805 201.705 8.16641C201.567 8.50476 201.363 8.81187 201.103 9.06942C200.844 9.32698 200.536 9.52971 200.197 9.66553C199.857 9.80136 199.494 9.86749 199.129 9.86ZM219.271 27.2733H214.462V18.9244C214.462 16.4622 213.416 15.7022 212.064 15.7022C210.638 15.7022 209.238 16.7778 209.238 18.9867V27.2733H204.427V11.9889H209.053V14.1067H209.116C209.58 13.1667 211.207 11.56 213.689 11.56C216.373 11.56 219.273 13.1533 219.273 17.82L219.271 27.2733Z" fill="#333333"/>
</g>
<defs>
<clipPath id="clip0_1401_5227">
<rect width="32" height="32" fill="white" transform="translate(128)"/>
</clipPath>
<clipPath id="clip1_1401_5227">
<rect width="32" height="32" fill="white" transform="translate(192)"/>
</clipPath>
</defs>
</svg>
