<svg width="24" height="25" viewBox="0 0 24 25" fill="none" xmlns="http://www.w3.org/2000/svg">
<g clip-path="url(#clip0_1203_5347)">
<path d="M12 2.44011C15.206 2.44011 15.5824 2.4544 16.8496 2.51156C18.0215 2.56397 18.655 2.75928 19.079 2.92601C19.6411 3.14515 20.0413 3.40239 20.4605 3.82161C20.8797 4.24082 21.1417 4.64098 21.3561 5.20311C21.5181 5.62709 21.7182 6.26067 21.7706 7.43256C21.8277 8.69973 21.842 9.07607 21.842 12.2821C21.842 15.4881 21.8277 15.8645 21.7706 17.1317C21.7182 18.3035 21.5228 18.9371 21.3561 19.3611C21.137 19.9232 20.8797 20.3234 20.4605 20.7426C20.0413 21.1618 19.6411 21.4238 19.079 21.6382C18.655 21.8002 18.0215 22.0002 16.8496 22.0527C15.5824 22.1098 15.206 22.1241 12 22.1241C8.79397 22.1241 8.41763 22.1098 7.15046 22.0527C5.97857 22.0002 5.34498 21.8049 4.921 21.6382C4.35888 21.4191 3.95872 21.1618 3.5395 20.7426C3.12029 20.3234 2.85828 19.9232 2.64391 19.3611C2.48194 18.9371 2.28186 18.3035 2.22946 17.1317C2.17229 15.8645 2.158 15.4881 2.158 12.2821C2.158 9.07607 2.17229 8.69973 2.22946 7.43256C2.28186 6.26067 2.47718 5.62709 2.64391 5.20311C2.86304 4.64098 3.12029 4.24082 3.5395 3.82161C3.95872 3.40239 4.35888 3.14038 4.921 2.92601C5.34498 2.76404 5.97857 2.56397 7.15046 2.51156C8.41763 2.44963 8.79874 2.44011 12 2.44011ZM12 0.277344C8.74157 0.277344 8.33188 0.291635 7.05042 0.348801C5.77372 0.405966 4.90195 0.610809 4.13974 0.906165C3.34895 1.21105 2.68202 1.6255 2.01509 2.29243C1.34816 2.95936 0.938468 3.63106 0.628821 4.41708C0.333466 5.17929 0.128623 6.05106 0.071457 7.33252C0.0142914 8.60922 0 9.01891 0 12.2773C0 15.5358 0.0142914 15.9455 0.071457 17.2269C0.128623 18.5036 0.333466 19.3754 0.628821 20.1424C0.933705 20.9332 1.34816 21.6001 2.01509 22.267C2.68202 22.934 3.35371 23.3436 4.13974 23.6533C4.90195 23.9486 5.77372 24.1535 7.05519 24.2107C8.33665 24.2678 8.74157 24.2821 12.0048 24.2821C15.268 24.2821 15.6729 24.2678 16.9544 24.2107C18.2311 24.1535 19.1028 23.9486 19.8698 23.6533C20.6606 23.3484 21.3275 22.934 21.9945 22.267C22.6614 21.6001 23.0711 20.9284 23.3807 20.1424C23.6761 19.3802 23.8809 18.5084 23.9381 17.2269C23.9953 15.9455 24.0095 15.5405 24.0095 12.2773C24.0095 9.01414 23.9953 8.60922 23.9381 7.32776C23.8809 6.05106 23.6761 5.17929 23.3807 4.41232C23.0758 3.62153 22.6614 2.9546 21.9945 2.28767C21.3275 1.62073 20.6558 1.21105 19.8698 0.901401C19.1076 0.606046 18.2358 0.401202 16.9544 0.344037C15.6681 0.291635 15.2584 0.277344 12 0.277344Z" fill="#010101"/>
<path d="M12 2.44011C15.206 2.44011 15.5824 2.4544 16.8496 2.51156C18.0215 2.56397 18.655 2.75928 19.079 2.92601C19.6411 3.14515 20.0413 3.40239 20.4605 3.82161C20.8797 4.24082 21.1417 4.64098 21.3561 5.20311C21.5181 5.62709 21.7182 6.26067 21.7706 7.43256C21.8277 8.69973 21.842 9.07607 21.842 12.2821C21.842 15.4881 21.8277 15.8645 21.7706 17.1317C21.7182 18.3035 21.5228 18.9371 21.3561 19.3611C21.137 19.9232 20.8797 20.3234 20.4605 20.7426C20.0413 21.1618 19.6411 21.4238 19.079 21.6382C18.655 21.8002 18.0215 22.0002 16.8496 22.0527C15.5824 22.1098 15.206 22.1241 12 22.1241C8.79397 22.1241 8.41763 22.1098 7.15046 22.0527C5.97857 22.0002 5.34498 21.8049 4.921 21.6382C4.35888 21.4191 3.95872 21.1618 3.5395 20.7426C3.12029 20.3234 2.85828 19.9232 2.64391 19.3611C2.48194 18.9371 2.28186 18.3035 2.22946 17.1317C2.17229 15.8645 2.158 15.4881 2.158 12.2821C2.158 9.07607 2.17229 8.69973 2.22946 7.43256C2.28186 6.26067 2.47718 5.62709 2.64391 5.20311C2.86304 4.64098 3.12029 4.24082 3.5395 3.82161C3.95872 3.40239 4.35888 3.14038 4.921 2.92601C5.34498 2.76404 5.97857 2.56397 7.15046 2.51156C8.41763 2.44963 8.79874 2.44011 12 2.44011Z" fill="#010101"/>
<path d="M11.9998 6.11768C8.59845 6.11768 5.83545 8.87591 5.83545 12.282C5.83545 15.6881 8.59369 18.4464 11.9998 18.4464C15.4059 18.4464 18.1642 15.6881 18.1642 12.282C18.1642 8.87591 15.4059 6.11768 11.9998 6.11768ZM11.9998 16.2788C9.7894 16.2788 7.99821 14.4877 7.99821 12.2773C7.99821 10.0669 9.7894 8.27567 11.9998 8.27567C14.2102 8.27567 16.0014 10.0669 16.0014 12.2773C16.0014 14.4877 14.2102 16.2788 11.9998 16.2788Z" fill="#EDEDED"/>
<path d="M18.4074 7.30849C19.202 7.30849 19.8461 6.66437 19.8461 5.86982C19.8461 5.07527 19.202 4.43115 18.4074 4.43115C17.6129 4.43115 16.9688 5.07527 16.9688 5.86982C16.9688 6.66437 17.6129 7.30849 18.4074 7.30849Z" fill="#010101"/>
</g>
<defs>
<clipPath id="clip0_1203_5347">
<rect width="24" height="24" fill="white" transform="translate(0 0.277344)"/>
</clipPath>
</defs>
</svg>
