<svg width="24" height="25" viewBox="0 0 24 25" fill="none" xmlns="http://www.w3.org/2000/svg">
<g clip-path="url(#clip0_1203_5351)">
<path d="M22.2283 0.277344H1.77167C1.30179 0.277344 0.851161 0.464001 0.518909 0.796253C0.186657 1.12851 0 1.57914 0 2.04901V22.5057C0 22.9756 0.186657 23.4262 0.518909 23.7584C0.851161 24.0907 1.30179 24.2773 1.77167 24.2773H22.2283C22.6982 24.2773 23.1488 24.0907 23.4811 23.7584C23.8133 23.4262 24 22.9756 24 22.5057V2.04901C24 1.57914 23.8133 1.12851 23.4811 0.796253C23.1488 0.464001 22.6982 0.277344 22.2283 0.277344ZM7.15333 20.7223H3.545V9.26068H7.15333V20.7223ZM5.34667 7.67234C4.93736 7.67004 4.53792 7.54654 4.19873 7.31743C3.85955 7.08832 3.59584 6.76387 3.44088 6.38503C3.28591 6.00619 3.24665 5.58994 3.32803 5.1888C3.40941 4.78766 3.6078 4.41962 3.89816 4.13113C4.18851 3.84263 4.55782 3.64661 4.95947 3.5678C5.36112 3.489 5.77711 3.53094 6.15495 3.68833C6.53279 3.84572 6.85554 4.11151 7.08247 4.45216C7.30939 4.7928 7.43032 5.19304 7.43 5.60234C7.43386 5.87638 7.38251 6.14838 7.27901 6.40215C7.17551 6.65591 7.02198 6.88624 6.82757 7.07941C6.63316 7.27258 6.40185 7.42463 6.14742 7.52649C5.893 7.62836 5.62067 7.67796 5.34667 7.67234ZM20.4533 20.7323H16.8467V14.4707C16.8467 12.624 16.0617 12.054 15.0483 12.054C13.9783 12.054 12.9283 12.8607 12.9283 14.5173V20.7323H9.32V9.26901H12.79V10.8573H12.8367C13.185 10.1523 14.405 8.94734 16.2667 8.94734C18.28 8.94734 20.455 10.1423 20.455 13.6423L20.4533 20.7323Z" fill="#010101"/>
</g>
<defs>
<clipPath id="clip0_1203_5351">
<rect width="24" height="24" fill="white" transform="translate(0 0.277344)"/>
</clipPath>
</defs>
</svg>
