<svg width="276" height="100" viewBox="0 0 276 100" fill="none" xmlns="http://www.w3.org/2000/svg">
<path d="M85.4155 33.3752L58.1238 11.5419C52.7905 7.29191 44.4571 7.25024 39.1655 11.5002L11.8738 33.3752C7.95712 36.5002 5.58212 42.7502 6.41545 47.6669L11.6655 79.0836C12.8738 86.1252 19.4155 91.6669 26.5405 91.6669H70.7071C77.7488 91.6669 84.4155 86.0002 85.6238 79.0419L90.8738 47.6252C91.6238 42.7502 89.2488 36.5002 85.4155 33.3752Z" fill="#1741CC"/>
<path d="M31 41.3109V53.3428C31 54.0624 31.7372 54.5464 32.3975 54.2604L66.3975 39.5307C66.7633 39.3723 67 39.0118 67 38.6132V26.5253C67 25.8051 66.2617 25.3211 65.6012 25.6083L31.6012 40.3938C31.2361 40.5526 31 40.9128 31 41.3109Z" fill="white"/>
<path d="M65.6148 46.2901L31.6148 60.4828C31.2425 60.6383 31 61.0022 31 61.4057V75.4762C31 75.8511 31.2097 76.1945 31.5432 76.3658L43.5642 82.5388C44.2297 82.8805 45.0211 82.3973 45.0211 81.6492V70.1923C45.0211 69.399 45.4899 68.6807 46.2161 68.3614L66.4025 59.4864C66.7656 59.3268 67 58.9676 67 58.571V47.2129C67 46.499 66.2735 46.0151 65.6148 46.2901Z" fill="white"/>
<path d="M117.536 65H107.648V46.568H104V39.656H107.648V38.696C107.648 33.272 111.104 30.056 116.816 30.056C119.84 30.056 122.48 30.68 122.48 30.68V36.872H120.176C117.488 36.872 117.536 38.36 117.536 39.656H122.48V46.568H117.536V65ZM134.414 37.688H124.526V31.112H134.414V37.688ZM134.414 65H124.526V39.656H134.414V65ZM165.981 65H156.093V50.12C156.093 48.872 155.757 47.24 152.541 47.24C149.373 47.24 148.845 49.4 148.845 50.552V65H138.957V39.656H148.077V43.688C149.997 41.144 153.165 39.08 156.765 39.08C162.669 39.08 165.981 42.536 165.981 48.728V65ZM195.806 65H186.926V62.216C184.862 65 181.838 65.624 179.486 65.624C172.334 65.624 168.734 60.056 168.734 51.752C168.734 42.584 173.678 38.936 179.102 38.936C182.846 38.936 184.958 40.472 185.918 41.384V31.112H195.806V65ZM182.126 58.472C185.294 58.472 186.158 55.112 186.158 52.232C186.158 49.016 185.054 45.992 182.078 45.992C179.342 45.992 178.478 48.92 178.478 52.28C178.478 55.928 179.582 58.472 182.126 58.472ZM215.429 55.064V52.76C215.429 52.76 214.469 53.528 212.213 54.008C209.429 54.584 208.229 55.496 208.229 57.08C208.229 58.568 209.189 59.24 211.109 59.24C213.221 59.24 215.429 57.896 215.429 55.064ZM225.941 65H216.341C216.341 65 215.621 63.8 215.621 62.12C215.621 62.12 213.605 65.72 208.277 65.72C202.949 65.72 199.157 63.272 199.157 57.896C199.157 52.52 203.429 50.264 208.709 49.448C212.693 48.824 215.141 48.584 215.141 46.808C215.141 45.8 214.277 45.176 212.213 45.176C209.141 45.176 207.653 46.232 207.173 47.096L199.637 44.888C200.885 41.48 205.493 38.6 213.125 38.6C218.933 38.6 224.501 40.856 224.501 47.672V54.968C224.501 62.6 225.269 63.56 225.941 64.52V65ZM272.953 65H263.065V50.12C263.065 48.536 262.345 47.24 259.849 47.24C257.209 47.24 255.961 48.2 255.961 50.6V65H246.073V50.12C246.073 48.536 245.353 47.24 242.857 47.24C240.313 47.24 238.969 48.2 238.969 50.552V65H229.081V39.656H237.817V43.736C240.025 40.904 242.665 39.08 246.409 39.08C249.769 39.08 253.129 40.28 255.049 43.736C256.249 41.624 259.465 39.08 263.689 39.08C269.641 39.08 272.953 42.536 272.953 48.824V65Z" fill="#1741CC"/>
</svg>
