<svg width="24" height="25" viewBox="0 0 24 25" fill="none" xmlns="http://www.w3.org/2000/svg">
<path d="M21.0571 7.458C21.0664 7.6692 21.0664 7.8708 21.0664 8.082C21.0756 14.4852 16.3712 21.8772 7.76793 21.8772C5.23048 21.8772 2.73933 21.1188 0.600098 19.698C0.970528 19.746 1.34096 19.7652 1.71139 19.7652C3.81358 19.7652 5.86021 19.0356 7.51789 17.682C5.51756 17.6436 3.75802 16.29 3.14681 14.3124C3.85063 14.4564 4.57296 14.4276 5.25826 14.226C3.08198 13.7844 1.51691 11.7972 1.50765 9.48361C1.50765 9.46441 1.50765 9.44521 1.50765 9.42601C2.15591 9.80041 2.88751 10.0116 3.62837 10.0308C1.58174 8.61 0.942746 5.77799 2.18369 3.56039C4.5637 6.594 8.06427 8.4276 11.8241 8.6292C11.4445 6.9492 11.9631 5.18279 13.1762 3.99239C15.0561 2.15878 18.0196 2.25478 19.7977 4.20359C20.8441 3.99239 21.8535 3.58919 22.7704 3.02279C22.4185 4.14599 21.6869 5.09639 20.7145 5.70119C21.6406 5.58599 22.5481 5.32679 23.4001 4.94279C22.7704 5.922 21.9739 6.7668 21.0571 7.458Z" fill="#010101"/>
</svg>
